# xmcd
#
# Track frame offsets:
#	150
#	19460
#	31698
#	45937
#	60266
#	79385
#	99650
#	113523
#	127185
#	146832
#	159881
#	176661
#	193113
#	206552
#	222216
#	240020
#	248205
#	272235
#	290850
#
# Disc length: 4068 seconds
#
# Revision: 0
# Processed by: cddbd v1.5.1PL2 Copyright (c) Steve Scherf et al.
# Submitted via: dBpowerAMP V4.0
#
DISCID=0f0fe213
DTITLE=Jimmy Barret - Introducing Jimmy Barret
DYEAR=1900
DGENRE=Country
TTITLE0=C-Ya Soon
TTITLE1=Cheap Chicken In Barcelona
TTITLE2=See Her Smile
TTITLE3=Cowgirl Land
TTITLE4=Crossroads In Between
TTITLE5=You, Me, Eternity
TTITLE6=Appalachian Love
TTITLE7=Your Honor, Your Honor
TTITLE8=Not As I Do
TTITLE9=Say My Name or Walk On By
TTITLE10=Lost or Found?
TTITLE11=Baby, I'm A Bad Man
TTITLE12=Lyin' Eyes and Alibi's
TTITLE13=If You Want Me To
TTITLE14=White Plains (HPN)
TTITLE15=You Lose
TTITLE16=Standin' In Line
TTITLE17=C-Ya Soon (band version)
TTITLE18=Cowgirl Land (in Spanish)
EXTD=
EXTT0=
EXTT1=
EXTT2=
EXTT3=
EXTT4=
EXTT5=
EXTT6=
EXTT7=
EXTT8=
EXTT9=
EXTT10=
EXTT11=
EXTT12=
EXTT13=
EXTT14=
EXTT15=
EXTT16=
EXTT17=
EXTT18=
PLAYORDER=
